# xmcd
#
# Track frame offsets: 
#        182
#        16962
#        38857
#        54567
#        67480
#        78162
#        90622
#        108625
#        124317
#        138515
#        154077
#        170880
#        186362
#        202140
#
# Disc length: 2878 seconds
#
# Revision: 1
# Processed by: cddbd v1.5.2PL0 Copyright (c) Steve Scherf et al.
# Submitted via: ExactAudioCopy v0.99pb4
#
DISCID=d30b3c0e
DTITLE=Eddie Rabbitt - The Country Store Collection
DYEAR=1988
DGENRE=Country
TTITLE0=Step By Step
TTITLE1=You Put The Beat In My Heart
TTITLE2=I Don't Know When To Start
TTITLE3=Dim Dim The Lights
TTITLE4=Early In The Mornin'
TTITLE5=Rivers
TTITLE6=You And I (With Crystal Gayle)
TTITLE7=Our Love Will Survive
TTITLE8=Good Night For Falling In Love
TTITLE9=Years After You
TTITLE10=You Can't Run From Love
TTITLE11=Laughin' On The Outside
TTITLE12=Someone Could Lose A Heart Tonight
TTITLE13=Nothing Like Falling In Love
EXTD=
EXTT0=
EXTT1=
EXTT2=
EXTT3=
EXTT4=
EXTT5=
EXTT6=
EXTT7=
EXTT8=
EXTT9=
EXTT10=
EXTT11=
EXTT12=
EXTT13=
PLAYORDER=
